<mxfile host="65bd71144e">
    <diagram id="tg7sR94G0rCxSbuoF9_v" name="Page-1">
        <mxGraphModel dx="683" dy="479" grid="1" gridSize="10" guides="1" tooltips="1" connect="1" arrows="1" fold="1" page="1" pageScale="1" pageWidth="850" pageHeight="1100" background="#FF66B3" math="0" shadow="0">
            <root>
                <mxCell id="0"/>
                <mxCell id="1" parent="0"/>
                <mxCell id="3" style="edgeStyle=orthogonalEdgeStyle;rounded=0;orthogonalLoop=1;jettySize=auto;html=1;" edge="1" parent="1" source="2">
                    <mxGeometry relative="1" as="geometry">
                        <mxPoint x="425" y="240" as="targetPoint"/>
                    </mxGeometry>
                </mxCell>
                <mxCell id="2" value="add&lt;br&gt;(num1, num2)" style="strokeWidth=2;html=1;shape=mxgraph.flowchart.terminator;whiteSpace=wrap;fillColor=#00FFFF;" vertex="1" parent="1">
                    <mxGeometry x="360" y="40" width="130" height="60" as="geometry"/>
                </mxCell>
                <mxCell id="4" value="return num1 + num2" style="strokeWidth=2;html=1;shape=mxgraph.flowchart.terminator;whiteSpace=wrap;fillColor=#00FFFF;" vertex="1" parent="1">
                    <mxGeometry x="360" y="240" width="130" height="60" as="geometry"/>
                </mxCell>
            </root>
        </mxGraphModel>
    </diagram>
</mxfile>